<mxfile host="app.diagrams.net" agent="Mozilla/5.0 (Windows NT 10.0; Win64; x64) AppleWebKit/537.36 (KHTML, like Gecko) Chrome/128.0.0.0 Safari/537.36" version="24.7.8">
  <diagram name="Page-1" id="2tC8VmPLjtLr1J6G5vQs">
    <mxGraphModel dx="804" dy="914" grid="1" gridSize="10" guides="1" tooltips="1" connect="1" arrows="1" fold="1" page="1" pageScale="1" pageWidth="850" pageHeight="1100" math="0" shadow="0">
      <root>
        <mxCell id="0" />
        <mxCell id="1" parent="0" />
        <mxCell id="pvtO3db3lYFqt5PCmuNX-4" value="call to coroutine" style="rounded=1;whiteSpace=wrap;html=1;arcSize=50;fontSize=14;" vertex="1" parent="1">
          <mxGeometry x="90" y="180" width="120" height="40" as="geometry" />
        </mxCell>
        <mxCell id="pvtO3db3lYFqt5PCmuNX-5" value="&lt;font style=&quot;font-size: 14px;&quot;&gt;allocates coroutine state on heap&lt;/font&gt;" style="shape=parallelogram;perimeter=parallelogramPerimeter;whiteSpace=wrap;html=1;fixedSize=1;fontSize=14;" vertex="1" parent="1">
          <mxGeometry x="25" y="240" width="250" height="40" as="geometry" />
        </mxCell>
        <mxCell id="pvtO3db3lYFqt5PCmuNX-6" value="constructs promise" style="shape=parallelogram;perimeter=parallelogramPerimeter;whiteSpace=wrap;html=1;fixedSize=1;fontSize=14;" vertex="1" parent="1">
          <mxGeometry x="330" y="240" width="180" height="40" as="geometry" />
        </mxCell>
        <mxCell id="pvtO3db3lYFqt5PCmuNX-7" value="promise.get_return_object()" style="rounded=1;whiteSpace=wrap;html=1;fontSize=14;" vertex="1" parent="1">
          <mxGeometry x="42.5" y="310" width="215" height="40" as="geometry" />
        </mxCell>
        <mxCell id="pvtO3db3lYFqt5PCmuNX-8" value="keeps result as local variable" style="shape=parallelogram;perimeter=parallelogramPerimeter;whiteSpace=wrap;html=1;fixedSize=1;fontSize=14;" vertex="1" parent="1">
          <mxGeometry x="300" y="310" width="250" height="40" as="geometry" />
        </mxCell>
        <mxCell id="pvtO3db3lYFqt5PCmuNX-9" value="promise.initial_suspend()" style="rounded=1;whiteSpace=wrap;html=1;fontSize=14;" vertex="1" parent="1">
          <mxGeometry x="42.5" y="370" width="215" height="40" as="geometry" />
        </mxCell>
        <mxCell id="pvtO3db3lYFqt5PCmuNX-10" value="co_await on result" style="rounded=1;whiteSpace=wrap;html=1;fontSize=14;dashed=1;" vertex="1" parent="1">
          <mxGeometry x="312.5" y="370" width="215" height="40" as="geometry" />
        </mxCell>
        <mxCell id="pvtO3db3lYFqt5PCmuNX-11" value="coroutine body" style="rounded=1;whiteSpace=wrap;html=1;arcSize=50;fontSize=14;" vertex="1" parent="1">
          <mxGeometry x="75" y="440" width="150" height="40" as="geometry" />
        </mxCell>
        <mxCell id="pvtO3db3lYFqt5PCmuNX-12" value="co_return" style="rounded=1;whiteSpace=wrap;html=1;fontSize=14;" vertex="1" parent="1">
          <mxGeometry x="342.5" y="440" width="155" height="40" as="geometry" />
        </mxCell>
        <mxCell id="pvtO3db3lYFqt5PCmuNX-13" value="promise.final_suspend()" style="rounded=1;whiteSpace=wrap;html=1;fontSize=14;" vertex="1" parent="1">
          <mxGeometry x="42.5" y="510" width="215" height="40" as="geometry" />
        </mxCell>
        <mxCell id="pvtO3db3lYFqt5PCmuNX-14" value="co_await on result" style="rounded=1;whiteSpace=wrap;html=1;fontSize=14;dashed=1;" vertex="1" parent="1">
          <mxGeometry x="312.5" y="510" width="215" height="40" as="geometry" />
        </mxCell>
        <mxCell id="pvtO3db3lYFqt5PCmuNX-15" value="promise.return_void()" style="rounded=1;whiteSpace=wrap;html=1;fontSize=14;" vertex="1" parent="1">
          <mxGeometry x="42.5" y="580" width="215" height="40" as="geometry" />
        </mxCell>
        <mxCell id="pvtO3db3lYFqt5PCmuNX-16" value="destroys promise" style="rounded=1;whiteSpace=wrap;html=1;fontSize=14;" vertex="1" parent="1">
          <mxGeometry x="312.5" y="580" width="215" height="30" as="geometry" />
        </mxCell>
        <mxCell id="pvtO3db3lYFqt5PCmuNX-17" value="caller" style="rounded=1;whiteSpace=wrap;html=1;arcSize=50;fontSize=14;" vertex="1" parent="1">
          <mxGeometry x="90" y="660" width="120" height="30" as="geometry" />
        </mxCell>
        <mxCell id="pvtO3db3lYFqt5PCmuNX-18" value="delete coroutine state" style="rounded=1;whiteSpace=wrap;html=1;fontSize=14;" vertex="1" parent="1">
          <mxGeometry x="312.5" y="630" width="215" height="30" as="geometry" />
        </mxCell>
        <mxCell id="pvtO3db3lYFqt5PCmuNX-19" value="" style="endArrow=classic;html=1;rounded=0;entryX=0.5;entryY=0;entryDx=0;entryDy=0;" edge="1" parent="1" target="pvtO3db3lYFqt5PCmuNX-5">
          <mxGeometry width="50" height="50" relative="1" as="geometry">
            <mxPoint x="150" y="220" as="sourcePoint" />
            <mxPoint x="200" y="170" as="targetPoint" />
          </mxGeometry>
        </mxCell>
        <mxCell id="pvtO3db3lYFqt5PCmuNX-20" value="" style="endArrow=classic;html=1;rounded=0;entryX=0;entryY=0.5;entryDx=0;entryDy=0;exitX=1;exitY=0.5;exitDx=0;exitDy=0;" edge="1" parent="1" source="pvtO3db3lYFqt5PCmuNX-5" target="pvtO3db3lYFqt5PCmuNX-6">
          <mxGeometry width="50" height="50" relative="1" as="geometry">
            <mxPoint x="270" y="260" as="sourcePoint" />
            <mxPoint x="310" y="210" as="targetPoint" />
          </mxGeometry>
        </mxCell>
        <mxCell id="pvtO3db3lYFqt5PCmuNX-21" value="" style="edgeStyle=elbowEdgeStyle;elbow=vertical;endArrow=classic;html=1;curved=0;rounded=0;endSize=8;startSize=8;entryX=0.5;entryY=0;entryDx=0;entryDy=0;" edge="1" parent="1" target="pvtO3db3lYFqt5PCmuNX-7">
          <mxGeometry width="50" height="50" relative="1" as="geometry">
            <mxPoint x="410" y="280" as="sourcePoint" />
            <mxPoint x="460" y="230" as="targetPoint" />
          </mxGeometry>
        </mxCell>
        <mxCell id="pvtO3db3lYFqt5PCmuNX-22" value="" style="endArrow=classic;html=1;rounded=0;exitX=1;exitY=0.5;exitDx=0;exitDy=0;" edge="1" parent="1" source="pvtO3db3lYFqt5PCmuNX-7" target="pvtO3db3lYFqt5PCmuNX-8">
          <mxGeometry width="50" height="50" relative="1" as="geometry">
            <mxPoint x="260" y="330" as="sourcePoint" />
            <mxPoint x="310" y="280" as="targetPoint" />
          </mxGeometry>
        </mxCell>
        <mxCell id="pvtO3db3lYFqt5PCmuNX-23" value="" style="endArrow=classic;html=1;rounded=0;" edge="1" parent="1" target="pvtO3db3lYFqt5PCmuNX-9">
          <mxGeometry width="50" height="50" relative="1" as="geometry">
            <mxPoint x="150" y="350" as="sourcePoint" />
            <mxPoint x="200" y="300" as="targetPoint" />
          </mxGeometry>
        </mxCell>
        <mxCell id="pvtO3db3lYFqt5PCmuNX-24" value="" style="endArrow=classic;html=1;rounded=0;entryX=0;entryY=0.5;entryDx=0;entryDy=0;exitX=1;exitY=0.5;exitDx=0;exitDy=0;" edge="1" parent="1" source="pvtO3db3lYFqt5PCmuNX-9" target="pvtO3db3lYFqt5PCmuNX-10">
          <mxGeometry width="50" height="50" relative="1" as="geometry">
            <mxPoint x="260" y="390" as="sourcePoint" />
            <mxPoint x="310" y="340" as="targetPoint" />
          </mxGeometry>
        </mxCell>
        <mxCell id="pvtO3db3lYFqt5PCmuNX-25" value="" style="edgeStyle=elbowEdgeStyle;elbow=vertical;endArrow=classic;html=1;curved=0;rounded=0;endSize=8;startSize=8;exitX=0.534;exitY=1.075;exitDx=0;exitDy=0;exitPerimeter=0;dashed=1;dashPattern=12 12;" edge="1" parent="1" source="pvtO3db3lYFqt5PCmuNX-10" target="pvtO3db3lYFqt5PCmuNX-11">
          <mxGeometry width="50" height="50" relative="1" as="geometry">
            <mxPoint x="420" y="290" as="sourcePoint" />
            <mxPoint x="160" y="320" as="targetPoint" />
          </mxGeometry>
        </mxCell>
        <mxCell id="pvtO3db3lYFqt5PCmuNX-26" value="" style="endArrow=classic;html=1;rounded=0;entryX=0;entryY=0.5;entryDx=0;entryDy=0;exitX=1;exitY=0.5;exitDx=0;exitDy=0;" edge="1" parent="1" source="pvtO3db3lYFqt5PCmuNX-11" target="pvtO3db3lYFqt5PCmuNX-12">
          <mxGeometry width="50" height="50" relative="1" as="geometry">
            <mxPoint x="230" y="460" as="sourcePoint" />
            <mxPoint x="270" y="410" as="targetPoint" />
          </mxGeometry>
        </mxCell>
        <mxCell id="pvtO3db3lYFqt5PCmuNX-27" value="" style="edgeStyle=elbowEdgeStyle;elbow=vertical;endArrow=classic;html=1;curved=0;rounded=0;endSize=8;startSize=8;entryX=0.5;entryY=0;entryDx=0;entryDy=0;" edge="1" parent="1" target="pvtO3db3lYFqt5PCmuNX-13">
          <mxGeometry width="50" height="50" relative="1" as="geometry">
            <mxPoint x="425" y="480" as="sourcePoint" />
            <mxPoint x="165" y="510" as="targetPoint" />
          </mxGeometry>
        </mxCell>
        <mxCell id="pvtO3db3lYFqt5PCmuNX-28" value="" style="endArrow=classic;html=1;rounded=0;entryX=0;entryY=0.5;entryDx=0;entryDy=0;exitX=1;exitY=0.5;exitDx=0;exitDy=0;" edge="1" parent="1" source="pvtO3db3lYFqt5PCmuNX-13" target="pvtO3db3lYFqt5PCmuNX-14">
          <mxGeometry width="50" height="50" relative="1" as="geometry">
            <mxPoint x="260" y="530" as="sourcePoint" />
            <mxPoint x="310" y="480" as="targetPoint" />
          </mxGeometry>
        </mxCell>
        <mxCell id="pvtO3db3lYFqt5PCmuNX-29" value="" style="edgeStyle=elbowEdgeStyle;elbow=vertical;endArrow=classic;html=1;curved=0;rounded=0;endSize=8;startSize=8;exitX=0.534;exitY=1.075;exitDx=0;exitDy=0;exitPerimeter=0;dashed=1;dashPattern=12 12;" edge="1" parent="1">
          <mxGeometry width="50" height="50" relative="1" as="geometry">
            <mxPoint x="425" y="550" as="sourcePoint" />
            <mxPoint x="148" y="577" as="targetPoint" />
          </mxGeometry>
        </mxCell>
        <mxCell id="pvtO3db3lYFqt5PCmuNX-30" value="" style="endArrow=classic;html=1;rounded=0;exitX=1;exitY=0.5;exitDx=0;exitDy=0;entryX=0;entryY=0.5;entryDx=0;entryDy=0;" edge="1" parent="1" source="pvtO3db3lYFqt5PCmuNX-15" target="pvtO3db3lYFqt5PCmuNX-16">
          <mxGeometry width="50" height="50" relative="1" as="geometry">
            <mxPoint x="260" y="640" as="sourcePoint" />
            <mxPoint x="310" y="590" as="targetPoint" />
          </mxGeometry>
        </mxCell>
        <mxCell id="pvtO3db3lYFqt5PCmuNX-34" value="" style="endArrow=classic;html=1;rounded=0;entryX=0.5;entryY=0;entryDx=0;entryDy=0;" edge="1" parent="1" target="pvtO3db3lYFqt5PCmuNX-18">
          <mxGeometry width="50" height="50" relative="1" as="geometry">
            <mxPoint x="420" y="610" as="sourcePoint" />
            <mxPoint x="470" y="560" as="targetPoint" />
          </mxGeometry>
        </mxCell>
        <mxCell id="pvtO3db3lYFqt5PCmuNX-35" value="" style="edgeStyle=elbowEdgeStyle;elbow=horizontal;endArrow=classic;html=1;curved=0;rounded=0;endSize=8;startSize=8;exitX=0.5;exitY=1;exitDx=0;exitDy=0;entryX=1;entryY=0.5;entryDx=0;entryDy=0;" edge="1" parent="1" source="pvtO3db3lYFqt5PCmuNX-18" target="pvtO3db3lYFqt5PCmuNX-17">
          <mxGeometry width="50" height="50" relative="1" as="geometry">
            <mxPoint x="420" y="740" as="sourcePoint" />
            <mxPoint x="285" y="710" as="targetPoint" />
            <Array as="points">
              <mxPoint x="420" y="670" />
            </Array>
          </mxGeometry>
        </mxCell>
        <mxCell id="pvtO3db3lYFqt5PCmuNX-37" value="" style="edgeStyle=elbowEdgeStyle;elbow=vertical;endArrow=classic;html=1;curved=0;rounded=0;endSize=8;startSize=8;dashed=1;dashPattern=12 12;entryX=0.5;entryY=1;entryDx=0;entryDy=0;" edge="1" parent="1">
          <mxGeometry width="50" height="50" relative="1" as="geometry">
            <mxPoint x="552" y="329" as="sourcePoint" />
            <mxPoint x="142" y="689" as="targetPoint" />
            <Array as="points">
              <mxPoint x="352" y="709" />
            </Array>
          </mxGeometry>
        </mxCell>
        <mxCell id="pvtO3db3lYFqt5PCmuNX-38" value="" style="endArrow=none;html=1;rounded=0;" edge="1" parent="1">
          <mxGeometry width="50" height="50" relative="1" as="geometry">
            <mxPoint x="540" y="329" as="sourcePoint" />
            <mxPoint x="550" y="329" as="targetPoint" />
          </mxGeometry>
        </mxCell>
      </root>
    </mxGraphModel>
  </diagram>
</mxfile>
